<svg width="202" height="192" viewBox="0 0 202 192" fill="none" xmlns="http://www.w3.org/2000/svg">
<path opacity="0.7" d="M150.098 61.1909C150.098 61.1909 136.221 41.2537 122.844 37.9222C109.468 34.5906 89.9382 40.4825 82.5858 52.4198C75.2333 64.3572 58.2933 59.1554 43.6719 69.1472C29.0505 79.139 21.2946 98.4324 24.8607 115.699C28.4268 132.966 37.6133 136.593 42.2506 144.294C46.8878 151.995 67.0323 173.646 92.1664 170.732C117.301 167.818 121.233 157.826 134.426 160.532C147.619 163.237 167.949 171.773 179.719 153.863C191.488 135.952 181.383 136.007 186.021 118.732C190.658 101.457 189.821 87.2257 183.934 75.5696C178.047 63.9135 154.554 66.8102 150.098 61.1909Z" fill="#FFEBEB"/>
<path d="M116.45 79.6219C116.618 79.5181 116.757 79.3698 116.853 79.1918C116.95 79.0137 117 78.8122 117 78.6071V68.1698C117.001 67.983 116.96 67.7985 116.88 67.6322C116.799 67.4658 116.681 67.3224 116.537 67.2142C116.393 67.106 116.225 67.0363 116.05 67.0108C115.874 66.9854 115.696 67.005 115.529 67.0681C112.744 68.114 110.334 70.0417 108.628 72.5873C106.922 75.133 106.004 78.1722 106 81.2889C106.001 82.2125 106.08 83.1341 106.234 84.0432C106.267 84.2249 106.34 84.3957 106.448 84.5418C106.555 84.6879 106.694 84.8052 106.852 84.884C106.999 84.9568 107.158 84.9963 107.32 85C107.513 84.9988 107.703 84.9438 107.87 84.8405L116.45 79.6219ZM114.8 69.9238V77.9403L108.214 81.9558C108.2 81.7238 108.2 81.5064 108.2 81.2889C108.204 78.9383 108.822 76.6343 109.987 74.6295C111.151 72.6247 112.816 70.9967 114.8 69.9238Z" fill="#ED4458"/>
<path d="M134.035 73.5489C134.02 73.5329 134.01 73.5129 134.006 73.4913L133.949 73.4193C132.636 71.1618 130.757 69.289 128.499 67.9873C126.241 66.6856 123.684 66.0005 121.08 66C120.776 66 120.484 66.1214 120.269 66.3376C120.054 66.5537 119.933 66.8468 119.933 67.1525V80.3199L108.585 86.9036C108.453 86.977 108.337 87.0762 108.243 87.1954C108.15 87.3147 108.081 87.4514 108.041 87.5977C108.001 87.7441 107.99 87.8969 108.01 88.0474C108.029 88.1979 108.079 88.3429 108.155 88.4739V88.5027L108.198 88.5748C109.853 91.4196 112.395 93.6373 115.432 94.8846C118.468 96.132 121.83 96.3395 124.995 95.475C128.161 94.6105 130.955 92.7222 132.944 90.1023C134.934 87.4825 136.008 84.2772 136 80.9826C136.003 78.3748 135.326 75.8116 134.035 73.5489Z" fill="#FFCCD2"/>
<path d="M105.462 99H96.6154V97.25C96.6096 95.8594 96.0485 94.5274 95.0544 93.5441C94.0602 92.5607 92.7136 92.0058 91.3077 92H80.6923C79.2864 92.0058 77.9398 92.5607 76.9456 93.5441C75.9515 94.5274 75.3904 95.8594 75.3846 97.25V99H66.5385C65.6 99 64.7 99.3687 64.0364 100.025C63.3728 100.682 63 101.572 63 102.5V130.5C63 131.428 63.3728 132.318 64.0364 132.975C64.7 133.631 65.6 134 66.5385 134H105.462C106.4 134 107.3 133.631 107.964 132.975C108.627 132.318 109 131.428 109 130.5V102.5C109 101.572 108.627 100.682 107.964 100.025C107.3 99.3687 106.4 99 105.462 99ZM78.9231 97.25C78.9231 96.7859 79.1095 96.3408 79.4413 96.0126C79.7731 95.6844 80.2231 95.5 80.6923 95.5H91.3077C91.7769 95.5 92.2269 95.6844 92.5587 96.0126C92.8905 96.3408 93.0769 96.7859 93.0769 97.25V99H78.9231V97.25ZM105.462 102.5V111.6C99.4915 114.819 92.7996 116.504 86 116.5C79.2004 116.504 72.5085 114.819 66.5385 111.6V102.5H105.462ZM81.5769 111.25C81.5769 110.786 81.7633 110.341 82.0951 110.013C82.4269 109.684 82.8769 109.5 83.3462 109.5H88.6538C89.1231 109.5 89.5731 109.684 89.9049 110.013C90.2367 110.341 90.4231 110.786 90.4231 111.25C90.4231 111.714 90.2367 112.159 89.9049 112.487C89.5731 112.816 89.1231 113 88.6538 113H83.3462C82.8769 113 82.4269 112.816 82.0951 112.487C81.7633 112.159 81.5769 111.714 81.5769 111.25Z" fill="#ED4458"/>
<path d="M164 104.778V119C164.001 119.351 163.902 119.694 163.715 119.987C163.528 120.28 163.262 120.508 162.95 120.644C162.739 120.732 162.514 120.777 162.286 120.778C161.831 120.776 161.394 120.593 161.065 120.267L155.43 114.4L142.94 127.378C142.615 127.712 142.176 127.899 141.719 127.899C141.261 127.899 140.823 127.712 140.498 127.378L133.149 119.733L118.945 134.489C118.616 134.815 118.179 134.998 117.724 135C117.269 134.994 116.834 134.811 116.502 134.489C116.181 134.152 116 133.697 116 133.222C116 132.748 116.181 132.293 116.502 131.956L131.928 115.956C132.253 115.622 132.692 115.434 133.149 115.434C133.606 115.434 134.045 115.622 134.37 115.956L141.719 123.6L153.009 111.889L147.353 106.044C147.121 105.787 146.963 105.467 146.899 105.121C146.834 104.775 146.866 104.417 146.989 104.089C147.123 103.767 147.344 103.493 147.625 103.299C147.907 103.106 148.237 103.002 148.575 103H162.286C162.741 103 163.177 103.187 163.498 103.521C163.819 103.854 164 104.306 164 104.778Z" fill="#FFCCD2"/>
<path d="M164 100.778V115C164.001 115.351 163.902 115.694 163.715 115.987C163.528 116.28 163.262 116.508 162.95 116.644C162.739 116.732 162.514 116.777 162.286 116.778C161.831 116.776 161.394 116.593 161.065 116.267L155.43 110.4L142.94 123.378C142.615 123.712 142.176 123.899 141.719 123.899C141.261 123.899 140.823 123.712 140.498 123.378L133.149 115.733L118.945 130.489C118.616 130.815 118.179 130.998 117.724 131C117.269 130.994 116.834 130.811 116.502 130.489C116.181 130.152 116 129.697 116 129.222C116 128.748 116.181 128.293 116.502 127.956L131.928 111.956C132.253 111.622 132.692 111.434 133.149 111.434C133.606 111.434 134.045 111.622 134.37 111.956L141.719 119.6L153.009 107.889L147.353 102.044C147.121 101.787 146.963 101.467 146.899 101.121C146.834 100.775 146.866 100.417 146.989 100.089C147.123 99.767 147.344 99.4926 147.625 99.2992C147.907 99.1058 148.237 99.0018 148.575 99H162.286C162.741 99 163.177 99.1873 163.498 99.5207C163.819 99.8541 164 100.306 164 100.778Z" fill="#ED4458"/>
<path d="M173.515 29.0525C173.64 28.5456 174.36 28.5457 174.485 29.0525L176.34 36.5636C176.473 37.1045 176.896 37.5268 177.436 37.6603L184.947 39.5146C185.454 39.6397 185.454 40.3603 184.947 40.4854L177.436 42.3397C176.896 42.4732 176.473 42.8955 176.34 43.4364L174.485 50.9475C174.36 51.4544 173.64 51.4543 173.515 50.9475L171.66 43.4364C171.527 42.8955 171.104 42.4732 170.564 42.3397L163.053 40.4854C162.546 40.3603 162.546 39.6397 163.053 39.5146L170.564 37.6603C171.104 37.5268 171.527 37.1045 171.66 36.5636L173.515 29.0525Z" stroke="#ED4458"/>
<path d="M8.56215 127.535C8.88431 126.664 10.1157 126.664 10.4379 127.535L11.9063 131.503C12.0076 131.777 12.2234 131.992 12.4971 132.094L16.4655 133.562C17.3361 133.884 17.3361 135.116 16.4655 135.438L12.4971 136.906C12.2234 137.008 12.0076 137.223 11.9063 137.497L10.4379 141.465C10.1157 142.336 8.88431 142.336 8.56215 141.465L7.09371 137.497C6.99243 137.223 6.77662 137.008 6.5029 136.906L2.5345 135.438C1.66389 135.116 1.66389 133.884 2.53451 133.562L6.5029 132.094C6.77662 131.992 6.99243 131.777 7.09371 131.503L8.56215 127.535Z" fill="#FFA2A2"/>
</svg>
