<svg width="189" height="137" viewBox="0 0 189 137" fill="none" xmlns="http://www.w3.org/2000/svg">
<path opacity="0.7" d="M149.626 24.5602C149.626 24.5602 135.581 4.32553 122.043 0.944254C108.504 -2.43703 88.7375 3.54275 81.2959 15.6583C73.8543 27.7738 56.709 22.4944 41.9103 32.6353C27.1117 42.7762 19.2618 62.3576 22.8711 79.882C26.4804 97.4064 35.7783 101.088 40.4718 108.904C45.1653 116.72 65.5539 138.694 90.9927 135.736C116.432 132.779 120.412 122.638 133.765 125.384C147.118 128.129 167.694 136.793 179.606 118.615C191.518 100.437 181.291 100.493 185.985 82.9602C190.678 65.4269 189.831 50.9837 183.873 39.1536C177.914 27.3235 154.137 30.2634 149.626 24.5602Z" fill="#E1E0FF"/>
<path d="M103 49.0083C103 43.4855 107.477 39.0083 113 39.0083H147.5C153.851 39.0083 159 44.157 159 50.5083C159 56.8596 153.851 62.0083 147.5 62.0083H103V49.0083Z" fill="#4845E3"/>
<path d="M116.556 55.1203C116.323 55.1203 116.122 55.0643 115.954 54.9523C115.786 54.831 115.651 54.6443 115.548 54.3923L113.518 49.2123C113.434 48.9883 113.406 48.7923 113.434 48.6243C113.471 48.447 113.56 48.307 113.7 48.2043C113.84 48.1016 114.027 48.0503 114.26 48.0503C114.465 48.0503 114.633 48.1016 114.764 48.2043C114.895 48.2976 115.007 48.4796 115.1 48.7503L116.794 53.4123H116.472L118.222 48.6383C118.297 48.433 118.395 48.2836 118.516 48.1903C118.647 48.097 118.815 48.0503 119.02 48.0503C119.225 48.0503 119.393 48.1016 119.524 48.2043C119.655 48.2976 119.753 48.4423 119.818 48.6383L121.54 53.4123H121.246L122.954 48.7083C123.047 48.4563 123.164 48.2836 123.304 48.1903C123.453 48.097 123.617 48.0503 123.794 48.0503C124.018 48.0503 124.191 48.1063 124.312 48.2183C124.433 48.3303 124.503 48.475 124.522 48.6523C124.541 48.8203 124.508 49.007 124.424 49.2123L122.408 54.3923C122.315 54.635 122.179 54.817 122.002 54.9383C121.834 55.0596 121.633 55.1203 121.4 55.1203C121.167 55.1203 120.961 55.0596 120.784 54.9383C120.616 54.817 120.485 54.635 120.392 54.3923L118.558 49.5343H119.356L117.564 54.3783C117.471 54.6303 117.34 54.817 117.172 54.9383C117.004 55.0596 116.799 55.1203 116.556 55.1203ZM129.052 55.1203C128.819 55.1203 128.618 55.0643 128.45 54.9523C128.282 54.831 128.147 54.6443 128.044 54.3923L126.014 49.2123C125.93 48.9883 125.902 48.7923 125.93 48.6243C125.967 48.447 126.056 48.307 126.196 48.2043C126.336 48.1016 126.523 48.0503 126.756 48.0503C126.961 48.0503 127.129 48.1016 127.26 48.2043C127.391 48.2976 127.503 48.4796 127.596 48.7503L129.29 53.4123H128.968L130.718 48.6383C130.793 48.433 130.891 48.2836 131.012 48.1903C131.143 48.097 131.311 48.0503 131.516 48.0503C131.721 48.0503 131.889 48.1016 132.02 48.2043C132.151 48.2976 132.249 48.4423 132.314 48.6383L134.036 53.4123H133.742L135.45 48.7083C135.543 48.4563 135.66 48.2836 135.8 48.1903C135.949 48.097 136.113 48.0503 136.29 48.0503C136.514 48.0503 136.687 48.1063 136.808 48.2183C136.929 48.3303 136.999 48.475 137.018 48.6523C137.037 48.8203 137.004 49.007 136.92 49.2123L134.904 54.3923C134.811 54.635 134.675 54.817 134.498 54.9383C134.33 55.0596 134.129 55.1203 133.896 55.1203C133.663 55.1203 133.457 55.0596 133.28 54.9383C133.112 54.817 132.981 54.635 132.888 54.3923L131.054 49.5343H131.852L130.06 54.3783C129.967 54.6303 129.836 54.817 129.668 54.9383C129.5 55.0596 129.295 55.1203 129.052 55.1203ZM141.548 55.1203C141.315 55.1203 141.114 55.0643 140.946 54.9523C140.778 54.831 140.643 54.6443 140.54 54.3923L138.51 49.2123C138.426 48.9883 138.398 48.7923 138.426 48.6243C138.464 48.447 138.552 48.307 138.692 48.2043C138.832 48.1016 139.019 48.0503 139.252 48.0503C139.458 48.0503 139.626 48.1016 139.756 48.2043C139.887 48.2976 139.999 48.4796 140.092 48.7503L141.786 53.4123H141.464L143.214 48.6383C143.289 48.433 143.387 48.2836 143.508 48.1903C143.639 48.097 143.807 48.0503 144.012 48.0503C144.218 48.0503 144.386 48.1016 144.516 48.2043C144.647 48.2976 144.745 48.4423 144.81 48.6383L146.532 53.4123H146.238L147.946 48.7083C148.04 48.4563 148.156 48.2836 148.296 48.1903C148.446 48.097 148.609 48.0503 148.786 48.0503C149.01 48.0503 149.183 48.1063 149.304 48.2183C149.426 48.3303 149.496 48.475 149.514 48.6523C149.533 48.8203 149.5 49.007 149.416 49.2123L147.4 54.3923C147.307 54.635 147.172 54.817 146.994 54.9383C146.826 55.0596 146.626 55.1203 146.392 55.1203C146.159 55.1203 145.954 55.0596 145.776 54.9383C145.608 54.817 145.478 54.635 145.384 54.3923L143.55 49.5343H144.348L142.556 54.3783C142.463 54.6303 142.332 54.817 142.164 54.9383C141.996 55.0596 141.791 55.1203 141.548 55.1203ZM114.75 72.0783C114.433 72.0783 114.176 71.9803 113.98 71.7843C113.793 71.5883 113.7 71.3363 113.7 71.0283C113.7 70.7296 113.793 70.487 113.98 70.3003C114.176 70.1043 114.433 70.0063 114.75 70.0063C115.077 70.0063 115.329 70.1043 115.506 70.3003C115.693 70.487 115.786 70.7296 115.786 71.0283C115.786 71.3363 115.693 71.5883 115.506 71.7843C115.329 71.9803 115.077 72.0783 114.75 72.0783Z" fill="white"/>
<path d="M67.5102 64.0181C67.5067 64.4997 67.5317 64.9811 67.5851 65.4597L53.581 84.5563C53.1569 85.1339 52.9539 85.8445 53.0088 86.5589C53.0638 87.2734 53.3731 87.9445 53.8805 88.4505L56.5578 91.1278C57.0638 91.6352 57.7349 91.9445 58.4494 91.9995C59.1639 92.0544 59.8744 91.8514 60.452 91.4273L79.5486 77.4232C80.0272 77.4766 80.5086 77.5016 80.9902 77.4981C83.7416 77.4983 86.4271 76.6555 88.685 75.0829C88.7739 75.0197 88.848 74.9378 88.902 74.8429C88.956 74.748 88.9886 74.6425 88.9975 74.5337C89.0064 74.4249 88.9914 74.3154 88.9536 74.213C88.9158 74.1106 88.8561 74.0177 88.7786 73.9409L71.0674 56.2297C70.9906 56.1522 70.8977 56.0925 70.7953 56.0547C70.6929 56.0169 70.5834 56.0019 70.4746 56.0108C70.3658 56.0197 70.2603 56.0523 70.1654 56.1063C70.0706 56.1603 69.9886 56.2344 69.9254 56.3233C68.3528 58.5812 67.51 61.2667 67.5102 64.0181ZM70.824 76.3186L67.0796 80.063C66.7933 80.3398 66.4107 80.4946 66.0125 80.4946C65.6142 80.4946 65.2316 80.3398 64.9453 80.063C64.6641 79.779 64.5063 79.3955 64.5063 78.9958C64.5063 78.5962 64.6641 78.2126 64.9453 77.9287L68.6897 74.1843C68.9807 73.9454 69.3502 73.8234 69.7262 73.8418C70.1022 73.8603 70.4579 74.018 70.7241 74.2842C70.9903 74.5504 71.148 74.9061 71.1665 75.2821C71.1849 75.6581 71.0629 76.0276 70.824 76.3186Z" fill="#BBBAFF"/>
<path d="M91.4929 71.7012C91.8834 72.0917 92.5197 72.0939 92.881 71.6763C93.8506 70.5556 94.6356 69.2851 95.2043 67.912C95.9008 66.2305 96.2593 64.4283 96.2593 62.6083C96.2593 60.7883 95.9008 58.9861 95.2043 57.3046C94.5078 55.6231 93.487 54.0952 92.2 52.8083C90.9131 51.5213 89.3852 50.5005 87.7037 49.804C86.0223 49.1075 84.2201 48.749 82.4 48.749C80.58 48.749 78.7778 49.1075 77.0963 49.804C75.7233 50.3727 74.4527 51.1577 73.332 52.1273C72.9144 52.4886 72.9166 53.1249 73.3071 53.5154L82.4 62.6083L91.4929 71.7012Z" fill="#4845E3"/>
<path d="M115 103.008C123.837 103.008 131 95.8449 131 87.0083C131 78.1717 123.837 71.0083 115 71.0083C106.163 71.0083 99 78.1717 99 87.0083C99 95.8449 106.163 103.008 115 103.008Z" stroke="#4845E3" stroke-width="2" stroke-linecap="round" stroke-linejoin="round"/>
<path d="M100.455 81.1902H129.545" stroke="#4845E3" stroke-width="2" stroke-linecap="round" stroke-linejoin="round"/>
<path d="M100.455 92.8264H129.545" stroke="#4845E3" stroke-width="2" stroke-linecap="round" stroke-linejoin="round"/>
<path d="M115 102.281C118.615 102.281 121.545 95.4432 121.545 87.0083C121.545 78.5734 118.615 71.7356 115 71.7356C111.385 71.7356 108.455 78.5734 108.455 87.0083C108.455 95.4432 111.385 102.281 115 102.281Z" stroke="#4845E3" stroke-width="2" stroke-linecap="round" stroke-linejoin="round"/>
<path d="M11.7404 104.716C11.9015 104.281 12.5171 104.281 12.6782 104.716L14.8784 110.662C15.0303 111.073 15.3541 111.397 15.7646 111.548L21.7106 113.749C22.1459 113.91 22.1459 114.525 21.7106 114.687L15.7646 116.887C15.3541 117.039 15.0303 117.362 14.8784 117.773L12.6782 123.719C12.5171 124.154 11.9015 124.154 11.7404 123.719L9.54018 117.773C9.38825 117.362 9.06454 117.039 8.65396 116.887L2.70802 114.687C2.27271 114.525 2.27271 113.91 2.70802 113.749L8.65396 111.548C9.06454 111.397 9.38825 111.073 9.54018 110.662L11.7404 104.716Z" stroke="#4845E3"/>
<path d="M174.33 4.72909C174.652 3.85847 175.883 3.85847 176.205 4.72909L177.196 7.4074C177.298 7.68112 177.513 7.89693 177.787 7.99822L180.465 8.98929C181.336 9.31144 181.336 10.5428 180.465 10.865L177.787 11.8561C177.513 11.9573 177.298 12.1732 177.196 12.4469L176.205 15.1252C175.883 15.9958 174.652 15.9958 174.33 15.1252L173.339 12.4469C173.237 12.1732 173.021 11.9573 172.748 11.8561L170.069 10.865C169.199 10.5428 169.199 9.31144 170.069 8.98929L172.748 7.99822C173.021 7.89693 173.237 7.68112 173.339 7.4074L174.33 4.72909Z" fill="#C1C1FF"/>
</svg>
