<svg width="174" height="150" viewBox="0 0 174 150" fill="none" xmlns="http://www.w3.org/2000/svg">
<path opacity="0.7" d="M135.098 40.1909C135.098 40.1909 121.221 20.2537 107.844 16.9222C94.4682 13.5906 74.9382 19.4825 67.5858 31.4198C60.2333 43.3572 43.2933 38.1554 28.6719 48.1472C14.0505 58.139 6.29459 77.4324 9.86068 94.6991C13.4268 111.966 22.6133 115.593 27.2506 123.294C31.8878 130.995 52.0323 152.646 77.1664 149.732C102.301 146.818 106.233 136.826 119.426 139.532C132.619 142.237 152.949 150.773 164.719 132.863C176.488 114.952 166.383 115.007 171.021 97.732C175.658 80.4566 174.821 66.2257 168.934 54.5696C163.047 42.9135 139.554 45.8102 135.098 40.1909Z" fill="#FFEBEB"/>
<path d="M86 55C86 50.5817 89.5817 47 94 47H127C131.418 47 135 50.5817 135 55V69.5094C135 73.9277 131.418 77.5094 127 77.5094H86V55Z" fill="#FF96A2"/>
<rect x="93.3962" y="54.3962" width="34.2075" height="3.69811" rx="1.84906" fill="#FFCCD2"/>
<rect x="93.3962" y="61.7925" width="34.2075" height="3.69811" rx="1.84906" fill="#FFCCD2"/>
<rect x="93.3962" y="69.1887" width="23.1132" height="3.69811" rx="1.84906" fill="#FFCCD2"/>
<path d="M102 117C104.652 117 107.196 115.957 109.071 114.1C110.946 112.244 112 109.726 112 107.1V93.9C112 91.2744 110.946 88.7563 109.071 86.8996C107.196 85.043 104.652 84 102 84C99.3478 84 96.8043 85.043 94.9289 86.8996C93.0536 88.7563 92 91.2744 92 93.9V107.1C92 109.726 93.0536 112.244 94.9289 114.1C96.8043 115.957 99.3478 117 102 117Z" fill="#ED4458"/>
<path d="M117.516 107.01C117.082 106.962 116.647 107.092 116.305 107.373C115.964 107.654 115.743 108.063 115.691 108.511C115.326 111.863 113.78 114.96 111.347 117.208C108.913 119.457 105.764 120.7 102.5 120.7C99.2361 120.7 96.0867 119.457 93.6534 117.208C91.2201 114.96 89.6736 111.863 89.3092 108.511C89.2572 108.063 89.0364 107.654 88.6947 107.373C88.3531 107.092 87.9181 106.962 87.4841 107.01C87.2665 107.031 87.0553 107.097 86.8628 107.204C86.6703 107.311 86.5005 107.457 86.3633 107.633C86.2261 107.808 86.1243 108.011 86.0639 108.228C86.0035 108.445 85.9857 108.672 86.0115 108.896C86.4359 112.788 88.1405 116.411 90.84 119.158C93.5395 121.906 97.0701 123.611 100.841 123.989V129.285C100.841 129.74 101.016 130.176 101.327 130.498C101.638 130.819 102.06 131 102.5 131C102.94 131 103.362 130.819 103.673 130.498C103.984 130.176 104.159 129.74 104.159 129.285V123.989C107.93 123.611 111.461 121.906 114.16 119.158C116.86 116.411 118.564 112.788 118.988 108.896C119.014 108.672 118.997 108.445 118.936 108.228C118.876 108.011 118.774 107.808 118.637 107.633C118.499 107.457 118.33 107.311 118.137 107.204C117.945 107.097 117.733 107.031 117.516 107.01Z" fill="#FFA3AE"/>
<path d="M69.9092 113.215C69.9092 113.688 69.7176 114.142 69.3766 114.477C69.0357 114.812 68.5732 115 68.091 115H49.9094C49.4272 115 48.9647 114.812 48.6237 114.477C48.2828 114.142 48.0912 113.688 48.0912 113.215C48.0912 112.741 48.2828 112.287 48.6237 111.952C48.9647 111.617 49.4272 111.429 49.9094 111.429H68.091C68.5732 111.429 69.0357 111.617 69.3766 111.952C69.7176 112.287 69.9092 112.741 69.9092 113.215ZM79 84.6466C79.006 87.6216 78.3214 90.5588 76.9982 93.235C75.675 95.9111 73.748 98.2559 71.3637 100.091C70.9134 100.425 70.5478 100.857 70.2954 101.352C70.0431 101.848 69.9109 102.394 69.9092 102.948V104.287C69.9092 105.234 69.526 106.142 68.8441 106.812C68.1622 107.482 67.2372 107.858 66.2728 107.858H51.7275C50.7631 107.858 49.8382 107.482 49.1563 106.812C48.4743 106.142 48.0912 105.234 48.0912 104.287V102.948C48.0897 102.402 47.9621 101.863 47.718 101.372C47.474 100.881 47.1198 100.451 46.6821 100.113C44.3028 98.2909 42.3753 95.9622 41.0448 93.3025C39.7142 90.6429 39.0152 87.7215 39.0004 84.7582C38.9322 74.1122 47.7048 65.2517 58.5229 65.0061C61.19 64.9406 63.8435 65.4003 66.3267 66.3582C68.81 67.3161 71.0727 68.7528 72.9813 70.5834C74.8899 72.4141 76.4058 74.6016 77.4396 77.017C78.4733 79.4324 79.0038 82.0266 79 84.6466ZM67.5683 85.1599C67.2236 84.8246 66.758 84.6365 66.2728 84.6365C65.7877 84.6365 65.3221 84.8246 64.9774 85.1599L59.0002 91.0521L53.023 85.1599C52.6697 84.8752 52.2212 84.7297 51.7648 84.7517C51.3083 84.7737 50.8765 84.9617 50.5534 85.279C50.2302 85.5964 50.0388 86.0204 50.0164 86.4687C49.994 86.9169 50.1422 87.3573 50.4321 87.7042L57.182 94.3106V102.502C57.182 102.975 57.3736 103.429 57.7145 103.764C58.0555 104.099 58.518 104.287 59.0002 104.287C59.4824 104.287 59.9448 104.099 60.2858 103.764C60.6268 103.429 60.8183 102.975 60.8183 102.502V94.3106L67.5683 87.7042C67.9097 87.3657 68.1012 86.9085 68.1012 86.4321C68.1012 85.9556 67.9097 85.4984 67.5683 85.1599Z" fill="#ED4458"/>
<path d="M144.531 2.70803C144.692 2.27271 145.308 2.27272 145.469 2.70802L148.423 10.6909C148.575 11.1015 148.899 11.4252 149.309 11.5771L157.292 14.5311C157.727 14.6922 157.727 15.3078 157.292 15.4689L149.309 18.4229C148.899 18.5748 148.575 18.8985 148.423 19.3091L145.469 27.292C145.308 27.7273 144.692 27.7273 144.531 27.292L141.577 19.3091C141.425 18.8985 141.101 18.5748 140.691 18.4229L132.708 15.4689C132.273 15.3078 132.273 14.6922 132.708 14.5311L140.691 11.5771C141.101 11.4252 141.425 11.1015 141.577 10.6909L144.531 2.70803Z" stroke="#ED4458"/>
<path d="M8.56215 126.535C8.88431 125.664 10.1157 125.664 10.4379 126.535L11.9063 130.503C12.0076 130.777 12.2234 130.992 12.4971 131.094L16.4655 132.562C17.3361 132.884 17.3361 134.116 16.4655 134.438L12.4971 135.906C12.2234 136.008 12.0076 136.223 11.9063 136.497L10.4379 140.465C10.1157 141.336 8.88431 141.336 8.56215 140.465L7.09371 136.497C6.99243 136.223 6.77662 136.008 6.5029 135.906L2.5345 134.438C1.66389 134.116 1.66389 132.884 2.53451 132.562L6.5029 131.094C6.77662 130.992 6.99243 130.777 7.09371 130.503L8.56215 126.535Z" fill="#FFA2A2"/>
</svg>
