<svg width="214" height="192" viewBox="0 0 214 192" fill="none" xmlns="http://www.w3.org/2000/svg">
<path opacity="0.7" d="M140.098 61.1909C140.098 61.1909 126.221 41.2537 112.844 37.9222C99.4682 34.5906 79.9382 40.4825 72.5858 52.4198C65.2333 64.3572 48.2933 59.1554 33.6719 69.1472C19.0505 79.139 11.2946 98.4324 14.8607 115.699C18.4268 132.966 27.6133 136.593 32.2506 144.294C36.8878 151.995 57.0323 173.646 82.1664 170.732C107.301 167.818 111.233 157.826 124.426 160.532C137.619 163.237 157.949 171.773 169.719 153.863C181.488 135.952 171.383 136.007 176.021 118.732C180.658 101.457 179.821 87.2257 173.934 75.5696C168.047 63.9135 144.554 66.8102 140.098 61.1909Z" fill="#FFEBEB"/>
<path d="M140.808 98.9608C138.249 94.5912 134.154 91.3116 129.307 89.7507C131.631 88.3811 133.436 86.293 134.446 83.8074C135.456 81.3218 135.616 78.5761 134.899 75.9921C134.183 73.4082 132.631 71.1289 130.481 69.5043C128.331 67.8798 125.703 67 123 67C120.297 67 117.669 67.8798 115.519 69.5043C113.369 71.1289 111.817 73.4082 111.101 75.9921C110.384 78.5761 110.544 81.3218 111.554 83.8074C112.564 86.293 114.369 88.3811 116.693 89.7507C111.846 91.3116 107.751 94.5912 105.192 98.9608C105.066 99.1656 105 99.4008 105 99.6405C105 99.8802 105.066 100.115 105.192 100.32C105.309 100.529 105.481 100.702 105.689 100.821C105.897 100.941 106.134 101.003 106.375 101H139.625C139.866 101.003 140.103 100.941 140.311 100.821C140.519 100.702 140.691 100.529 140.808 100.32C140.934 100.115 141 99.8802 141 99.6405C141 99.4008 140.934 99.1656 140.808 98.9608Z" fill="#FFCCD2"/>
<circle cx="123" cy="79" r="13" fill="#ED4458"/>
<path d="M92 147.27C92 147.729 92.1791 148.169 92.498 148.493C92.8169 148.818 93.2493 149 93.7003 149C99.559 148.989 105.175 146.615 109.317 142.399C113.46 138.183 115.793 132.467 115.804 126.505L115.804 117.853L124.305 117.853C124.641 117.854 124.969 117.754 125.249 117.565C125.529 117.377 125.748 117.108 125.878 116.793C126 116.473 126.032 116.125 125.968 115.788C125.904 115.451 125.747 115.14 125.517 114.89L115.315 104.507C114.993 104.182 114.557 104 114.104 104C113.65 104 113.214 104.182 112.892 104.507L102.69 114.89C102.46 115.14 102.303 115.451 102.24 115.788C102.176 116.125 102.207 116.473 102.329 116.793C102.459 117.108 102.678 117.377 102.958 117.565C103.238 117.754 103.566 117.854 103.902 117.853L112.403 117.853L112.403 126.505C112.398 131.551 110.425 136.389 106.919 139.958C103.413 143.526 98.6589 145.533 93.7003 145.539C93.2493 145.539 92.8169 145.722 92.498 146.046C92.1791 146.371 92 146.811 92 147.27Z" fill="#ED4458"/>
<path d="M56.7369 104.044L80.0833 88.5687C82.0774 87.2468 84.7407 88.6767 84.7407 91.0692V117.751C84.7407 119.96 82.4341 121.411 80.4426 120.455L57.0962 109.249C54.997 108.241 54.796 105.331 56.7369 104.044Z" stroke="#ED4458" stroke-width="5"/>
<circle cx="84.2778" cy="121.13" r="9.72222" fill="#FFCCD2"/>
<circle cx="82.4259" cy="86.8704" r="9.72222" fill="#FFCCD2"/>
<circle cx="53.7222" cy="106.315" r="9.72222" fill="#FFCCD2"/>
<path d="M198.515 120.053C198.64 119.546 199.36 119.546 199.485 120.053L201.34 127.564C201.473 128.104 201.896 128.527 202.436 128.66L209.947 130.515C210.454 130.64 210.454 131.36 209.947 131.485L202.436 133.34C201.896 133.473 201.473 133.896 201.34 134.436L199.485 141.947C199.36 142.454 198.64 142.454 198.515 141.947L196.66 134.436C196.527 133.896 196.104 133.473 195.564 133.34L188.053 131.485C187.546 131.36 187.546 130.64 188.053 130.515L195.564 128.66C196.104 128.527 196.527 128.104 196.66 127.564L198.515 120.053Z" stroke="#ED4458"/>
<path d="M155.562 43.5345C155.884 42.6639 157.116 42.6639 157.438 43.5345L158.906 47.5029C159.008 47.7766 159.223 47.9924 159.497 48.0937L163.465 49.5621C164.336 49.8843 164.336 51.1157 163.465 51.4379L159.497 52.9063C159.223 53.0076 159.008 53.2234 158.906 53.4971L157.438 57.4655C157.116 58.3361 155.884 58.3361 155.562 57.4655L154.094 53.4971C153.992 53.2234 153.777 53.0076 153.503 52.9063L149.535 51.4379C148.664 51.1157 148.664 49.8843 149.535 49.5621L153.503 48.0937C153.777 47.9924 153.992 47.7766 154.094 47.5029L155.562 43.5345Z" fill="#FFA2A2"/>
</svg>
