<svg width="197" height="137" viewBox="0 0 197 137" fill="none" xmlns="http://www.w3.org/2000/svg">
<path opacity="0.7" d="M127.626 24.5602C127.626 24.5602 113.581 4.32553 100.043 0.944254C86.5042 -2.43703 66.7375 3.54275 59.2959 15.6583C51.8543 27.7738 34.709 22.4944 19.9103 32.6353C5.1117 42.7762 -2.7382 62.3576 0.87111 79.882C4.48042 97.4064 13.7783 101.088 18.4718 108.904C23.1653 116.72 43.5539 138.694 68.9927 135.736C94.4315 132.779 98.4116 122.638 111.765 125.384C125.118 128.129 145.694 136.793 157.606 118.615C169.518 100.437 159.291 100.493 163.985 82.9602C168.678 65.4269 167.831 50.9837 161.873 39.1536C155.914 27.3235 132.137 30.2634 127.626 24.5602Z" fill="#E1E0FF"/>
<path d="M48 79.9191C59.387 79.9191 69 81.7857 69 88.9948C69 96.2039 59.3254 98.0083 48 98.0083C36.613 98.0083 27 96.1389 27 88.9326C27 81.7235 36.6718 79.9191 48 79.9191ZM74.5971 58.9557C75.9866 58.9557 77.1142 60.0978 77.1142 61.4986V64.7797H80.4829C81.8694 64.7797 83 65.9218 83 67.3226C83 68.7234 81.8694 69.8656 80.4829 69.8656H77.1142V73.1496C77.1142 74.5504 75.9866 75.6925 74.5971 75.6925C73.2105 75.6925 72.08 74.5504 72.08 73.1496V69.8656H68.7171C67.3277 69.8656 66.2 68.7234 66.2 67.3226C66.2 65.9218 67.3277 64.7797 68.7171 64.7797H72.08V61.4986C72.08 60.0978 73.2105 58.9557 74.5971 58.9557ZM48 45.0083C55.7128 45.0083 61.8954 51.2473 61.8954 59.0305C61.8954 66.8138 55.7128 73.0528 48 73.0528C40.2872 73.0528 34.1046 66.8138 34.1046 59.0305C34.1046 51.2473 40.2872 45.0083 48 45.0083Z" fill="#4845E3"/>
<path d="M96 34.0083C96 29.59 99.5817 26.0083 104 26.0083H141C145.418 26.0083 149 29.59 149 34.0083V51.0083C149 55.4266 145.418 59.0083 141 59.0083H96V34.0083Z" fill="#CBCBFF"/>
<rect x="104" y="34.0083" width="37" height="5" rx="2.5" fill="#4845E3"/>
<rect x="104" y="41.0083" width="37" height="5" rx="2.5" fill="#4845E3"/>
<rect x="104" y="48.0083" width="25" height="5" rx="2.5" fill="#4845E3"/>
<path d="M110 97.6333C112.287 97.6333 114.481 96.7246 116.099 95.1071C117.716 93.4896 118.625 91.2958 118.625 89.0083V77.5083C118.625 75.2208 117.716 73.027 116.099 71.4095C114.481 69.792 112.287 68.8833 110 68.8833C107.713 68.8833 105.519 69.792 103.901 71.4095C102.284 73.027 101.375 75.2208 101.375 77.5083V89.0083C101.375 91.2958 102.284 93.4896 103.901 95.1071C105.519 96.7246 107.713 97.6333 110 97.6333Z" fill="#4845E3"/>
<path d="M123.009 89.0263C122.633 88.9858 122.257 89.0951 121.961 89.3306C121.665 89.566 121.473 89.9086 121.428 90.2842C121.113 93.0942 119.773 95.6894 117.664 97.574C115.556 99.4586 112.828 100.5 110 100.5C107.172 100.5 104.444 99.4586 102.336 97.574C100.227 95.6894 98.8876 93.0942 98.5719 90.2842C98.5268 89.9086 98.3355 89.566 98.0395 89.3306C97.7436 89.0951 97.3667 88.9858 96.9907 89.0263C96.8022 89.0442 96.6192 89.0995 96.4524 89.1892C96.2857 89.2788 96.1385 89.4009 96.0196 89.5482C95.9008 89.6955 95.8126 89.8652 95.7602 90.0471C95.7079 90.229 95.6925 90.4196 95.7149 90.6076C96.0825 93.8691 97.5593 96.9054 99.8981 99.2082C102.237 101.511 105.296 102.941 108.563 103.258V107.696C108.563 108.077 108.714 108.443 108.984 108.712C109.253 108.982 109.619 109.133 110 109.133C110.381 109.133 110.747 108.982 111.016 108.712C111.286 108.443 111.438 108.077 111.438 107.696V103.258C114.704 102.941 117.763 101.511 120.102 99.2082C122.441 96.9054 123.918 93.8691 124.285 90.6076C124.308 90.4196 124.292 90.229 124.24 90.0471C124.188 89.8652 124.099 89.6955 123.98 89.5482C123.862 89.4009 123.714 89.2788 123.548 89.1892C123.381 89.0995 123.198 89.0442 123.009 89.0263Z" fill="#CBCBFF"/>
<path d="M181.531 63.7163C181.692 63.281 182.308 63.281 182.469 63.7163L185.423 71.6992C185.575 72.1098 185.899 72.4335 186.309 72.5854L194.292 75.5394C194.727 75.7005 194.727 76.3161 194.292 76.4772L186.309 79.4312C185.899 79.5831 185.575 79.9068 185.423 80.3174L182.469 88.3003C182.308 88.7356 181.692 88.7356 181.531 88.3003L178.577 80.3174C178.425 79.9068 178.101 79.5831 177.691 79.4312L169.708 76.4772C169.273 76.3161 169.273 75.7005 169.708 75.5394L177.691 72.5854C178.101 72.4335 178.425 72.1098 178.577 71.6992L181.531 63.7163Z" stroke="#4845E3"/>
<path d="M26.5621 2.5428C26.8843 1.67219 28.1157 1.67219 28.4379 2.54281L29.9063 6.5112C30.0076 6.78492 30.2234 7.00073 30.4971 7.10201L34.4655 8.57045C35.3361 8.89261 35.3361 10.124 34.4655 10.4462L30.4971 11.9146C30.2234 12.0159 30.0076 12.2317 29.9063 12.5054L28.4379 16.4738C28.1157 17.3444 26.8843 17.3444 26.5621 16.4738L25.0937 12.5054C24.9924 12.2317 24.7766 12.0159 24.5029 11.9146L20.5345 10.4462C19.6639 10.124 19.6639 8.89261 20.5345 8.57045L24.5029 7.10201C24.7766 7.00073 24.9924 6.78492 25.0937 6.5112L26.5621 2.5428Z" fill="#C1C1FF"/>
</svg>
