<svg width="186" height="152" viewBox="0 0 186 152" fill="none" xmlns="http://www.w3.org/2000/svg">
<path opacity="0.7" d="M127.626 39.5602C127.626 39.5602 113.581 19.3255 100.043 15.9443C86.5042 12.563 66.7375 18.5427 59.2959 30.6583C51.8543 42.7738 34.709 37.4944 19.9103 47.6353C5.1117 57.7762 -2.7382 77.3576 0.87111 94.882C4.48042 112.406 13.7783 116.088 18.4718 123.904C23.1653 131.72 43.5539 153.694 68.9927 150.736C94.4315 147.779 98.4116 137.638 111.765 140.384C125.118 143.129 145.694 151.793 157.606 133.615C169.518 115.437 159.291 115.493 163.985 97.9602C168.678 80.4269 167.831 65.9837 161.873 54.1536C155.914 42.3235 132.137 45.2634 127.626 39.5602Z" fill="#E1E0FF"/>
<path d="M38.1724 83.0085C38.1724 83.2738 38.0634 83.5281 37.8694 83.7157C37.6754 83.9032 37.4123 84.0085 37.1379 84.0085H34.0345C33.7601 84.0085 33.497 83.9032 33.303 83.7157C33.109 83.5281 33 83.2738 33 83.0085C33 82.7433 33.109 82.489 33.303 82.3014C33.497 82.1139 33.7601 82.0085 34.0345 82.0085H35.069V74.0085H34.0345C33.7601 74.0085 33.497 73.9032 33.303 73.7157C33.109 73.5281 33 73.2738 33 73.0085C33 72.7433 33.109 72.489 33.303 72.3014C33.497 72.1139 33.7601 72.0085 34.0345 72.0085H36.1034C36.2797 72.0087 36.4531 72.0525 36.607 72.1356C36.7608 72.2187 36.8902 72.3385 36.9828 72.4835L41.2759 79.121L45.569 72.4835C45.6615 72.3385 45.7909 72.2187 45.9448 72.1356C46.0987 72.0525 46.272 72.0087 46.4483 72.0085H48.5172C48.7916 72.0085 49.0547 72.1139 49.2487 72.3014C49.4427 72.489 49.5517 72.7433 49.5517 73.0085C49.5517 73.2738 49.4427 73.5281 49.2487 73.7157C49.0547 73.9032 48.7916 74.0085 48.5172 74.0085H47.4828V82.0085H48.5172C48.7916 82.0085 49.0547 82.1139 49.2487 82.3014C49.4427 82.489 49.5517 82.7433 49.5517 83.0085C49.5517 83.2738 49.4427 83.5281 49.2487 83.7157C49.0547 83.9032 48.7916 84.0085 48.5172 84.0085H45.4138C45.1394 84.0085 44.8763 83.9032 44.6823 83.7157C44.4883 83.5281 44.3793 83.2738 44.3793 83.0085C44.3793 82.7433 44.4883 82.489 44.6823 82.3014C44.8763 82.1139 45.1394 82.0085 45.4138 82.0085V76.496L42.1552 81.5335C42.0624 81.6783 41.9329 81.7977 41.7791 81.8805C41.6252 81.9633 41.452 82.0068 41.2759 82.0068C41.0997 82.0068 40.9265 81.9633 40.7727 81.8805C40.6188 81.7977 40.4893 81.6783 40.3966 81.5335L37.1379 76.496V82.0085C37.4123 82.0085 37.6754 82.1139 37.8694 82.3014C38.0634 82.489 38.1724 82.7433 38.1724 83.0085ZM52.6552 80.0085H61.9655C62.2399 80.0085 62.503 79.9032 62.697 79.7157C62.891 79.5281 63 79.2738 63 79.0085C63 78.7433 62.891 78.489 62.697 78.3014C62.503 78.1139 62.2399 78.0085 61.9655 78.0085H52.6552C52.3808 78.0085 52.1177 78.1139 51.9237 78.3014C51.7297 78.489 51.6207 78.7433 51.6207 79.0085C51.6207 79.2738 51.7297 79.5281 51.9237 79.7157C52.1177 79.9032 52.3808 80.0085 52.6552 80.0085ZM61.9655 82.0085H52.6552C52.3808 82.0085 52.1177 82.1139 51.9237 82.3014C51.7297 82.489 51.6207 82.7433 51.6207 83.0085C51.6207 83.2738 51.7297 83.5281 51.9237 83.7157C52.1177 83.9032 52.3808 84.0085 52.6552 84.0085H61.9655C62.2399 84.0085 62.503 83.9032 62.697 83.7157C62.891 83.5281 63 83.2738 63 83.0085C63 82.7433 62.891 82.489 62.697 82.3014C62.503 82.1139 62.2399 82.0085 61.9655 82.0085ZM61.9655 86.0085H40.2414C39.967 86.0085 39.7039 86.1139 39.5099 86.3014C39.3159 86.489 39.2069 86.7433 39.2069 87.0085C39.2069 87.2738 39.3159 87.5281 39.5099 87.7157C39.7039 87.9032 39.967 88.0085 40.2414 88.0085H61.9655C62.2399 88.0085 62.503 87.9032 62.697 87.7157C62.891 87.5281 63 87.2738 63 87.0085C63 86.7433 62.891 86.489 62.697 86.3014C62.503 86.1139 62.2399 86.0085 61.9655 86.0085ZM61.9655 90.0085H40.2414C39.967 90.0085 39.7039 90.1139 39.5099 90.3014C39.3159 90.489 39.2069 90.7433 39.2069 91.0085C39.2069 91.2738 39.3159 91.5281 39.5099 91.7157C39.7039 91.9032 39.967 92.0085 40.2414 92.0085H61.9655C62.2399 92.0085 62.503 91.9032 62.697 91.7157C62.891 91.5281 63 91.2738 63 91.0085C63 90.7433 62.891 90.489 62.697 90.3014C62.503 90.1139 62.2399 90.0085 61.9655 90.0085Z" fill="#A09EFF"/>
<rect x="94" y="54.0083" width="17" height="68" rx="8.5" fill="#4845E3"/>
<rect x="71" y="82.0083" width="17" height="40" rx="8.5" fill="#7774FB"/>
<rect x="48" y="100.008" width="17" height="22" rx="8.5" fill="#4845E3"/>
<path d="M141.41 58.87C141.243 58.7881 141.057 58.7543 140.872 58.7723C140.688 58.7904 140.511 58.8595 140.362 58.9723C136.83 61.6835 133.835 60.379 130.379 58.8572C126.922 57.3353 122.854 55.5449 118.399 58.9723H118.387L118.337 59.0106L118.312 59.0362L118.275 59.0746L118.237 59.113L118.212 59.1513L118.175 59.1897C118.175 59.2025 118.162 59.2153 118.15 59.2281L118.125 59.2792C118.125 59.292 118.112 59.3048 118.112 59.3176C118.099 59.3318 118.091 59.3496 118.087 59.3687C118.075 59.3815 118.075 59.3943 118.062 59.4199C118.05 59.4455 118.05 59.4455 118.05 59.4582C118.05 59.471 118.037 59.4966 118.037 59.5094C118.037 59.5222 118.025 59.535 118.025 59.5478C118.025 59.5606 118.012 59.5861 118.012 59.5989V59.6629C118.012 59.6757 118 59.7012 118 59.714V81.2757C118 81.547 118.105 81.8072 118.292 81.9991C118.48 82.191 118.734 82.2987 118.998 82.2987C119.263 82.2987 119.517 82.191 119.704 81.9991C119.891 81.8072 119.997 81.547 119.997 81.2757V75.6614C123.353 73.3467 126.248 74.6128 129.58 76.0835C131.614 76.9659 133.798 77.925 136.144 77.925C137.866 77.925 139.676 77.4135 141.56 75.9556C141.683 75.8596 141.783 75.7359 141.852 75.594C141.922 75.4521 141.958 75.2958 141.959 75.1371V59.7908C141.958 59.6007 141.906 59.4146 141.809 59.2524C141.712 59.0902 141.574 58.958 141.41 58.87Z" fill="#B9B9FF"/>
<path d="M136.531 2.71633C136.692 2.28102 137.308 2.28102 137.469 2.71633L140.423 10.6992C140.575 11.1098 140.899 11.4335 141.309 11.5854L149.292 14.5394C149.727 14.7005 149.727 15.3161 149.292 15.4772L141.309 18.4312C140.899 18.5831 140.575 18.9068 140.423 19.3174L137.469 27.3003C137.308 27.7356 136.692 27.7356 136.531 27.3003L133.577 19.3174C133.425 18.9068 133.101 18.5831 132.691 18.4312L124.708 15.4772C124.273 15.3161 124.273 14.7005 124.708 14.5394L132.691 11.5854C133.101 11.4335 133.425 11.1098 133.577 10.6992L136.531 2.71633Z" stroke="#4845E3"/>
<path d="M175.562 134.543C175.884 133.672 177.116 133.672 177.438 134.543L178.906 138.511C179.008 138.785 179.223 139.001 179.497 139.102L183.465 140.57C184.336 140.893 184.336 142.124 183.465 142.446L179.497 143.915C179.223 144.016 179.008 144.232 178.906 144.505L177.438 148.474C177.116 149.344 175.884 149.344 175.562 148.474L174.094 144.505C173.992 144.232 173.777 144.016 173.503 143.915L169.535 142.446C168.664 142.124 168.664 140.893 169.535 140.57L173.503 139.102C173.777 139.001 173.992 138.785 174.094 138.511L175.562 134.543Z" fill="#C1C1FF"/>
</svg>
